<svg width="131" height="135" viewBox="0 0 131 135" fill="none" xmlns="http://www.w3.org/2000/svg">
<g id="Group">
<g id="Group_2">
<path id="Vector" d="M108.273 65.659C105.821 66.8223 103.148 67.4267 100.398 67.4274C97.1336 67.4277 93.9062 66.5408 91.0644 64.8623C85.7595 61.7295 82.3396 56.1295 81.7905 50.01C75.7766 49.4479 70.3181 45.9204 67.2714 40.5226C64.2094 35.0975 63.9838 28.5008 66.498 22.9211C62.6493 20.1552 59.966 16.0149 58.9815 11.3064C45.8818 11.7364 33.8546 16.5763 24.2666 24.4144C26.7789 26.9056 28.2661 30.3666 28.2661 34.0997C28.2661 38.8776 25.8245 43.0803 22.1523 45.4795C20.1046 46.8173 17.6762 47.5966 15.0716 47.5966C13.2366 47.5966 11.4468 47.2075 9.80001 46.4725C9.79184 46.4812 9.78367 46.4896 9.7755 46.4982C9.15913 48.2461 8.62161 50.0322 8.162 51.8504C6.93804 56.6942 6.28271 61.7703 6.28271 67.001C6.28271 100.402 32.8475 127.575 65.4996 127.575C78.4152 127.575 90.3745 123.319 100.117 116.112C100.323 115.924 100.586 115.725 100.892 115.52C104.541 112.728 107.872 109.524 110.803 105.963C107.407 103.477 105.255 99.407 105.255 94.9752C105.255 92.0348 106.182 89.3132 107.749 87.0936C110.055 83.8274 113.751 81.6576 117.943 81.494C118.107 81.4847 118.275 81.4783 118.45 81.4783C118.577 81.4783 118.704 81.4828 118.83 81.4866C119.272 78.8274 119.544 76.1104 119.631 73.3458C115.027 72.3396 110.978 69.5956 108.273 65.659ZM41.6049 107.612C37.4916 107.612 33.8129 105.676 31.391 102.649C29.4385 100.295 28.257 97.2516 28.257 93.9301C28.257 86.4879 34.176 80.4332 41.4516 80.4332C45.5648 80.4332 49.2439 82.3694 51.6654 85.3966C53.6179 87.7505 54.7994 90.7937 54.7994 94.1152C54.7994 101.557 48.8807 107.612 41.6049 107.612ZM50.3255 59.0288C46.2123 59.0288 42.5335 57.0926 40.1117 54.0655C38.1592 51.7116 36.9777 48.6683 36.9777 45.3468C36.9777 37.9046 42.8967 31.8499 50.1722 31.8499C54.2855 31.8499 57.9642 33.7861 60.3861 36.8132C62.3386 39.1672 63.5201 42.2104 63.5201 45.5319C63.5201 52.9738 57.6014 59.0288 50.3255 59.0288ZM77.5846 101.173C72.3023 101.173 67.5771 98.6903 64.4632 94.8058C61.9723 91.7848 60.4668 87.887 60.4668 83.6349C60.4668 74.0662 68.0773 66.2818 77.4313 66.2818C82.7135 66.2818 87.4387 68.7649 90.5526 72.6494C93.0436 75.6704 94.549 79.5681 94.549 83.8203C94.549 93.389 86.9386 101.173 77.5846 101.173Z" fill="#D4B783"/>
<path id="Vector_2" d="M50.1727 52.4162C53.9837 52.4162 57.0841 49.2448 57.0841 45.3464C57.0841 41.4481 53.9837 38.2766 50.1727 38.2766C46.3616 38.2766 43.2612 41.4481 43.2612 45.3464C43.2612 49.2448 46.362 52.4162 50.1727 52.4162Z" fill="#89634A"/>
<path id="Vector_3" d="M41.452 101C45.263 101 48.3634 97.8285 48.3634 93.9301C48.3634 90.0318 45.263 86.8604 41.452 86.8604C37.6409 86.8604 34.5405 90.0318 34.5405 93.9301C34.5405 97.8285 37.6409 101 41.452 101Z" fill="#89634A"/>
<path id="Vector_4" d="M21.9835 34.0991C21.9835 32.0093 21.0919 30.0841 19.6075 28.7659C16.7318 32.3708 14.254 36.3193 12.2412 40.5413C13.1237 40.9478 14.0841 41.1692 15.0721 41.1692C18.8831 41.1689 21.9835 37.9974 21.9835 34.0991Z" fill="#89634A"/>
<path id="Vector_5" d="M111.538 94.9748C111.538 97.3602 112.729 99.5438 114.593 100.834C117.145 96.9717 119.272 92.7928 120.908 88.3691C120.132 88.066 119.305 87.905 118.45 87.905C114.639 87.905 111.538 91.0765 111.538 94.9748Z" fill="#89634A"/>
<path id="Vector_6" d="M77.4313 94.5613C83.3211 94.5613 88.1126 89.6597 88.1126 83.6353C88.1126 77.6105 83.3211 72.7092 77.4313 72.7092C71.5415 72.7092 66.75 77.6105 66.75 83.6353C66.75 89.6597 71.5415 94.5613 77.4313 94.5613Z" fill="#89634A"/>
</g>
<g id="Group_3">
<path id="Vector_7" d="M60.3862 36.813C62.2479 39.1402 63.3669 42.1118 63.3669 45.3465C63.3669 52.7888 57.4479 58.8434 50.1724 58.8434C46.1442 58.8434 42.534 56.9854 40.1118 54.0652C42.5333 57.0924 46.2124 59.0285 50.3257 59.0285C57.6012 59.0285 63.5202 52.9739 63.5202 45.5316C63.5202 42.2101 62.339 39.1669 60.3862 36.813Z" fill="#89634A"/>
<path id="Vector_8" d="M54.6467 93.9301C54.6467 101.372 48.7277 107.427 41.4521 107.427C37.424 107.427 33.8137 105.569 31.3916 102.649C33.8134 105.676 37.4922 107.612 41.6054 107.612C48.881 107.612 54.8 101.557 54.8 94.1152C54.8 90.7933 53.6185 87.7504 51.666 85.3965C53.5274 87.7237 54.6467 90.6953 54.6467 93.9301Z" fill="#89634A"/>
<path id="Vector_9" d="M94.3959 83.6352C94.3959 93.2038 86.7854 100.988 77.4314 100.988C72.2343 100.988 67.5779 98.5829 64.4634 94.8061C67.577 98.6903 72.3022 101.174 77.5847 101.174C86.9387 101.174 94.5492 93.3892 94.5492 83.8206C94.5492 79.5684 93.0437 75.6707 90.5528 72.6497C92.953 75.6437 94.3959 79.4698 94.3959 83.6352Z" fill="#89634A"/>
<path id="Vector_10" d="M50.1721 58.8434C57.4476 58.8434 63.3667 52.7887 63.3667 45.3465C63.3667 42.1117 62.2476 39.1402 60.3859 36.8129C57.9644 33.7858 54.2857 31.8496 50.1721 31.8496C42.8966 31.8496 36.9775 37.9042 36.9775 45.3465C36.9775 48.6683 38.1591 51.7112 40.1116 54.0652C42.534 56.9853 46.144 58.8434 50.1721 58.8434ZM50.1721 38.2767C53.9831 38.2767 57.0835 41.4481 57.0835 45.3465C57.0835 49.2448 53.9831 52.4163 50.1721 52.4163C46.3611 52.4163 43.2607 49.2448 43.2607 45.3465C43.2607 41.4481 46.3614 38.2767 50.1721 38.2767Z" fill="black"/>
<path id="Vector_11" d="M41.4524 107.427C48.7279 107.427 54.6469 101.372 54.6469 93.9302C54.6469 90.6955 53.5279 87.7239 51.6662 85.3967C49.2447 82.3695 45.5656 80.4333 41.4524 80.4333C34.1768 80.4333 28.2578 86.488 28.2578 93.9302C28.2578 97.2521 29.4394 100.295 31.3918 102.649C33.814 105.569 37.4239 107.427 41.4524 107.427ZM41.4524 86.8604C45.2634 86.8604 48.3638 90.0319 48.3638 93.9302C48.3638 97.8286 45.2634 101 41.4524 101C37.6413 101 34.5409 97.8286 34.5409 93.9302C34.5409 90.0319 37.6413 86.8604 41.4524 86.8604Z" fill="black"/>
<path id="Vector_12" d="M130.993 66.3905L130.989 66.1235C130.969 64.427 129.663 63.0391 128.007 62.9536C123.334 62.7123 119.208 59.8561 117.241 55.5005C116.849 54.6347 116.102 53.9914 115.202 53.7443C114.301 53.4971 113.34 53.6723 112.578 54.2221C110.471 55.7421 107.888 56.5792 105.306 56.5796C103.119 56.5796 100.953 55.9838 99.0437 54.8561C94.8158 52.3592 92.3704 47.5283 92.814 42.5486C92.8985 41.5987 92.5661 40.6593 91.9067 39.9851C91.247 39.3103 90.3256 38.9716 89.4007 39.0568C89.0253 39.0918 88.6433 39.1095 88.2653 39.1095C83.7817 39.1095 79.6066 36.6472 77.3695 32.6837C74.9285 28.3589 75.1722 22.9245 77.9902 18.8384C78.5277 18.0591 78.6993 17.0758 78.4577 16.1545C78.2164 15.2332 77.5875 14.469 76.7411 14.0689C72.485 12.0566 69.6934 7.83879 69.4562 3.06122C69.372 1.36801 68.0164 0.0327781 66.3592 0.010926L66.1029 0.00674844C65.9024 0.00321354 65.7014 0 65.5 0C29.383 0 0 30.0566 0 67.0011C0 103.946 29.383 134.002 65.5 134.002C101.617 134.002 131 103.946 131 67.0011C131 66.797 130.997 66.5939 130.993 66.3905ZM19.6074 28.766C21.0918 30.0842 21.9834 32.0095 21.9834 34.0992C21.9834 37.9976 18.883 41.169 15.072 41.169C14.0839 41.169 13.1236 40.9476 12.2411 40.5411C14.2539 36.3195 16.7316 32.371 19.6074 28.766ZM114.594 100.835C112.729 99.5443 111.539 97.3607 111.539 94.9753C111.539 91.0769 114.639 87.9055 118.45 87.9055C119.306 87.9055 120.133 88.0665 120.909 88.3695C119.273 92.7933 117.146 96.9722 114.594 100.835ZM122.818 82.2429C121.541 81.784 120.194 81.5273 118.83 81.4864C118.704 81.4826 118.577 81.4781 118.45 81.4781C118.28 81.4781 118.112 81.4874 117.943 81.4938C113.751 81.6574 110.054 83.8269 107.749 87.0934C106.182 89.3127 105.255 92.0346 105.255 94.975C105.255 99.4068 107.407 103.476 110.803 105.963C107.872 109.524 104.541 112.728 100.892 115.52C100.634 115.718 100.378 115.919 100.117 116.112C90.3743 123.319 78.415 127.575 65.4994 127.575C32.8475 127.575 6.28281 100.402 6.28281 67.0011C6.28281 61.7707 6.93783 56.6943 8.16241 51.8499C8.62202 50.032 9.15954 48.2459 9.77591 46.4977C9.77968 46.4874 9.78283 46.4768 9.7866 46.4662C9.79099 46.4681 9.79571 46.4698 9.80042 46.472C11.4472 47.2069 13.2367 47.5961 15.072 47.5961C17.6766 47.5961 20.1051 46.8168 22.1527 45.479C25.8246 43.0798 28.2665 38.8771 28.2665 34.0992C28.2665 30.3661 26.7796 26.9051 24.267 24.4139C24.1253 24.2735 23.9824 24.1347 23.8344 24.0007C34.1174 13.574 48.1061 6.966 63.5758 6.45826C64.5676 11.2024 67.2715 15.3746 71.1492 18.1613C68.6158 23.7834 68.8429 30.4303 71.9283 35.8969C74.9979 41.3358 80.4978 44.89 86.5576 45.4565C87.1108 51.6227 90.5565 57.2653 95.9018 60.422C98.7651 62.113 102.017 63.0066 105.306 63.0063C108.077 63.006 110.77 62.3967 113.241 61.2247C115.967 65.1912 120.046 67.9561 124.685 68.97C124.543 73.5387 123.902 77.9814 122.818 82.2429Z" fill="black"/>
<path id="Vector_13" d="M77.4317 100.988C86.7857 100.988 94.3962 93.2038 94.3962 83.6351C94.3962 79.47 92.9532 75.6437 90.5531 72.6496C87.4395 68.7654 82.7143 66.282 77.4317 66.282C68.0777 66.282 60.4673 74.0665 60.4673 83.6351C60.4673 87.8873 61.9727 91.785 64.4637 94.806C67.5782 98.5829 72.2346 100.988 77.4317 100.988ZM77.4317 72.7091C83.3215 72.7091 88.113 77.6104 88.113 83.6351C88.113 89.6595 83.3215 94.5612 77.4317 94.5612C71.5419 94.5612 66.7504 89.6595 66.7504 83.6351C66.7504 77.6104 71.5419 72.7091 77.4317 72.7091Z" fill="black"/>
</g>
</g>
</svg>
